<svg width="40" height="40" viewBox="0 0 40 40" fill="none" xmlns="http://www.w3.org/2000/svg">
<path d="M0 8C0 3.58172 3.58172 0 8 0H32C36.4183 0 40 3.58172 40 8V32C40 36.4183 36.4183 40 32 40H8C3.58172 40 0 36.4183 0 32V8Z" fill="#E7EDF7"/>
<path d="M23.333 10.917C23.9739 10.917 24.5888 11.1718 25.042 11.625C25.4951 12.0782 25.75 12.6931 25.75 13.334V16.75H26.667C27.3078 16.7501 27.9228 17.0049 28.376 17.458C28.829 17.9112 29.083 18.5262 29.083 19.167V26.667C29.0829 27.3078 28.8291 27.9228 28.376 28.376C27.9228 28.8291 27.3078 29.0829 26.667 29.083H25.0195C25.013 29.0832 25.0065 29.084 25 29.084H15C14.9935 29.084 14.987 29.0832 14.9805 29.083H13.334C12.6933 29.083 12.0782 28.8289 11.625 28.376C11.1719 27.9228 10.9171 27.3078 10.917 26.667V21.667C10.917 21.0261 11.1718 20.4112 11.625 19.958C12.0782 19.5049 12.6931 19.25 13.334 19.25H14.25V13.334C14.25 12.6931 14.5049 12.0782 14.958 11.625C15.4112 11.1718 16.0261 10.917 16.667 10.917H23.333ZM16.667 12.417C16.4239 12.417 16.1905 12.5136 16.0186 12.6855C15.8467 12.8574 15.75 13.0909 15.75 13.334V27.584H24.25V13.334C24.25 13.0909 24.1533 12.8574 23.9814 12.6855C23.8095 12.5136 23.5761 12.417 23.333 12.417H16.667ZM13.334 20.75C13.0909 20.75 12.8574 20.8467 12.6855 21.0186C12.5136 21.1905 12.417 21.4239 12.417 21.667V26.667C12.4171 26.9099 12.5138 27.1426 12.6855 27.3145C12.8574 27.4863 13.0909 27.583 13.334 27.583H14.25V20.75H13.334ZM25.75 27.583H26.667C26.91 27.5829 27.1426 27.4863 27.3145 27.3145C27.4863 27.1426 27.5829 26.91 27.583 26.667V19.167C27.583 18.9239 27.4864 18.6905 27.3145 18.5186C27.1426 18.3468 26.9099 18.2501 26.667 18.25H25.75V27.583ZM21.666 24.25C22.0802 24.25 22.416 24.5858 22.416 25C22.416 25.4142 22.0802 25.75 21.666 25.75H18.333C17.9189 25.7498 17.583 25.4141 17.583 25C17.583 24.5859 17.9189 24.2502 18.333 24.25H21.666ZM21.666 20.917C22.0802 20.917 22.416 21.2528 22.416 21.667C22.4158 22.0811 22.0801 22.417 21.666 22.417H18.333C17.9191 22.4168 17.5832 22.0809 17.583 21.667C17.583 21.2529 17.9189 20.9172 18.333 20.917H21.666ZM21.666 17.583C22.0801 17.583 22.4158 17.9189 22.416 18.333C22.416 18.7472 22.0802 19.083 21.666 19.083H18.333C17.9189 19.0828 17.583 18.7471 17.583 18.333C17.5832 17.9191 17.9191 17.5832 18.333 17.583H21.666ZM21.666 14.25C22.0802 14.25 22.416 14.5858 22.416 15C22.416 15.4142 22.0802 15.75 21.666 15.75H18.333C17.9189 15.7498 17.583 15.4141 17.583 15C17.583 14.5859 17.9189 14.2502 18.333 14.25H21.666Z" fill="#305FA1"/>
</svg>
