<svg width="20" height="20" viewBox="0 0 20 20" fill="none" xmlns="http://www.w3.org/2000/svg">
<path d="M13.9531 10.875C14.1119 10.4924 14.551 10.311 14.9336 10.4697C15.3156 10.6287 15.4973 11.0669 15.3389 11.4492L15.3301 11.4697C15.4971 11.602 15.648 11.7529 15.7803 11.9199L15.8018 11.9121C16.1844 11.7536 16.6226 11.9348 16.7812 12.3174C16.9398 12.6999 16.7584 13.1382 16.376 13.2969L16.3545 13.3057C16.3666 13.4105 16.375 13.5169 16.375 13.625C16.375 13.7328 16.3666 13.8388 16.3545 13.9434L16.376 13.9531C16.7585 14.1118 16.9398 14.551 16.7812 14.9336C16.6224 15.3156 16.1841 15.4972 15.8018 15.3389L15.7793 15.3291C15.647 15.4962 15.4962 15.647 15.3291 15.7793L15.3389 15.8018C15.4971 16.1844 15.3142 16.6238 14.9316 16.7822C14.5489 16.9402 14.1104 16.7577 13.9521 16.375L13.9434 16.3545C13.8388 16.3666 13.7328 16.375 13.625 16.375C13.5169 16.375 13.4105 16.3666 13.3057 16.3545L13.2969 16.376C13.1382 16.7584 12.6999 16.9398 12.3174 16.7812C11.9348 16.6226 11.7536 16.1844 11.9121 15.8018L11.9199 15.7803C11.7526 15.6477 11.6012 15.4965 11.4688 15.3291L11.4492 15.3379C11.0666 15.4962 10.6273 15.3141 10.4688 14.9316C10.3108 14.5491 10.4926 14.1105 10.875 13.9521L10.8945 13.9434C10.8825 13.8389 10.875 13.7327 10.875 13.625C10.875 13.5166 10.8823 13.4098 10.8945 13.3047L10.875 13.2969C10.4925 13.1381 10.3111 12.6999 10.4697 12.3174C10.6285 11.9349 11.0667 11.7535 11.4492 11.9121L11.4688 11.9199C11.6012 11.7526 11.7526 11.6012 11.9199 11.4688L11.9121 11.4492C11.7535 11.0667 11.9349 10.6285 12.3174 10.4697C12.6999 10.3111 13.1381 10.4925 13.2969 10.875L13.3047 10.8945C13.4098 10.8823 13.5166 10.875 13.625 10.875C13.7331 10.875 13.8395 10.8824 13.9443 10.8945L13.9531 10.875ZM8.29102 2.875C10.5461 2.875 12.3748 4.70299 12.375 6.95801C12.375 8.3456 11.6821 9.57052 10.624 10.3086C10.6728 10.4545 10.6792 10.6158 10.6289 10.7734C10.5028 11.1679 10.08 11.3858 9.68555 11.2598C8.99858 11.0404 8.26945 10.9861 7.55762 11.1016C6.84571 11.2171 6.17033 11.4985 5.58789 11.9238C5.0055 12.3492 4.53174 12.9068 4.20508 13.5498C3.87851 14.1928 3.7081 14.9039 3.70801 15.625C3.70792 16.0391 3.37216 16.375 2.95801 16.375C2.54402 16.3748 2.2081 16.039 2.20801 15.625C2.20812 14.6677 2.43455 13.7236 2.86816 12.8701C3.3017 12.0168 3.93023 11.2775 4.70312 10.7129C5.01876 10.4824 5.35546 10.2842 5.70703 10.1191C4.79237 9.37013 4.20801 8.23232 4.20801 6.95801C4.20818 4.70321 6.03626 2.87535 8.29102 2.875ZM13.625 12.375C12.9346 12.375 12.375 12.9346 12.375 13.625C12.375 14.3154 12.9346 14.875 13.625 14.875C14.3154 14.875 14.875 14.3154 14.875 13.625C14.875 12.9346 14.3154 12.375 13.625 12.375ZM8.29102 4.375C6.86469 4.37535 5.70818 5.53164 5.70801 6.95801C5.70801 8.38453 6.86458 9.54164 8.29102 9.54199C9.71775 9.54199 10.875 8.38474 10.875 6.95801C10.8748 5.53142 9.71764 4.375 8.29102 4.375Z" fill="#2F414A"/>
</svg>
