<svg width="368" height="72" viewBox="0 0 368 72" fill="none" xmlns="http://www.w3.org/2000/svg">
<path d="M50.9879 33.4199C53.4621 31.6671 54.9912 28.8624 54.9912 25.9246C54.9912 19.404 49.9726 15.1582 42.235 15.1582H34.375V33.4199H50.9879Z" fill="#61A47A"/>
<path d="M32.9702 15.1582H22.7363V33.4199H32.9702V15.1582Z" fill="#CF5A5B"/>
<path d="M32.9702 34.8086H22.7363V56.8417H32.9702V34.8086Z" fill="#838485"/>
<path d="M51.4976 34.8086H34.375V56.8417H42.3955C51.5016 56.8417 57.4734 51.8296 57.4734 44.1339C57.4734 40.2097 55.1677 36.6903 51.4996 34.8086H51.4976Z" fill="#3B659C"/>
<path d="M70.1777 52.1579V18.8105H84.4218C86.3909 18.8105 88.1139 19.1599 89.5907 19.8586C91.0675 20.5573 92.2108 21.5339 93.0207 22.7884C93.8305 24.0429 94.2355 25.5277 94.2355 27.2427C94.2355 28.2272 94.029 29.18 93.6162 30.101C93.2033 31.022 92.6554 31.824 91.9726 32.5068C91.2898 33.1896 90.5037 33.7057 89.6145 34.0551C90.8531 34.4044 91.9488 34.9761 92.9016 35.7701C93.8544 36.564 94.6166 37.5168 95.1883 38.6284C95.7599 39.74 96.0458 40.9468 96.0458 42.249C96.0458 44.2181 95.5614 45.949 94.5928 47.4416C93.6241 48.9343 92.2743 50.0935 90.5435 50.9193C88.8126 51.745 86.8197 52.1579 84.5647 52.1579H70.1777ZM77.3236 31.816H83.3261C84.1519 31.816 84.8665 31.6652 85.4699 31.3634C86.0733 31.0617 86.5497 30.6489 86.8991 30.1248C87.2484 29.6008 87.4231 28.9894 87.4231 28.2907C87.4231 27.592 87.2484 27.0283 86.8991 26.5043C86.5497 25.9802 86.0733 25.5753 85.4699 25.2895C84.8665 25.0036 84.1519 24.8607 83.3261 24.8607H77.3236V31.816ZM77.3236 46.1077H83.8978C84.8506 46.1077 85.7081 45.9251 86.4703 45.5599C87.2325 45.1947 87.828 44.6786 88.2568 44.0116C88.6855 43.3447 88.8999 42.5983 88.8999 41.7726C88.8999 40.8833 88.6855 40.1211 88.2568 39.4859C87.828 38.8507 87.2325 38.3505 86.4703 37.9853C85.7081 37.62 84.8506 37.4374 83.8978 37.4374H77.3236V46.1077Z" fill="#CF5A5B"/>
<path d="M111.576 52.5393C109.226 52.5393 107.09 52.1264 105.169 51.3007C103.247 50.4749 101.619 49.2919 100.286 47.7516C98.9516 46.2112 98.0306 44.3454 97.5225 42.154L103.954 40.2484C104.43 42.2175 105.359 43.7499 106.741 44.8456C108.122 45.9413 109.734 46.4891 111.576 46.4891C112.497 46.4891 113.339 46.3541 114.101 46.0842C114.863 45.8142 115.467 45.3855 115.911 44.7979C116.356 44.2104 116.578 43.4879 116.578 42.6303C116.578 41.7728 116.261 41.0186 115.625 40.4628C114.99 39.907 114.156 39.4544 113.124 39.1051C112.092 38.7557 110.965 38.4143 109.742 38.0808C108.519 37.7473 107.281 37.3583 106.026 36.9137C104.772 36.469 103.628 35.8815 102.596 35.151C101.564 34.4205 100.73 33.4836 100.095 32.3403C99.4598 31.197 99.1422 29.7678 99.1422 28.0528C99.1422 26.0837 99.6742 24.3846 100.738 22.9554C101.802 21.5262 103.215 20.4146 104.978 19.6207C106.741 18.8267 108.686 18.4297 110.814 18.4297C112.942 18.4297 114.831 18.779 116.578 19.4777C118.325 20.1765 119.81 21.1689 121.032 22.4552C122.255 23.7414 123.089 25.2262 123.533 26.9094L117.293 29.3867C116.816 27.8305 116.014 26.6236 114.887 25.7661C113.759 24.9086 112.402 24.4799 110.814 24.4799C109.893 24.4799 109.091 24.6069 108.408 24.861C107.725 25.115 107.201 25.4803 106.836 25.9567C106.471 26.4331 106.288 27.0047 106.288 27.6717C106.288 28.4974 106.606 29.1405 107.241 29.6011C107.876 30.0616 108.71 30.4427 109.742 30.7444C110.774 31.0461 111.902 31.3478 113.124 31.6495C114.347 31.9513 115.578 32.3324 116.816 32.7929C118.055 33.2534 119.198 33.8648 120.246 34.627C121.294 35.3892 122.136 36.3737 122.771 37.5806C123.406 38.7875 123.724 40.3119 123.724 42.154C123.724 44.3454 123.184 46.2192 122.104 47.7754C121.024 49.3316 119.571 50.5146 117.745 51.3245C115.919 52.1343 113.863 52.5393 111.576 52.5393Z" fill="#61A47A"/>
<path d="M127.489 52.1579V18.8105H141.305C143.56 18.8105 145.521 19.2314 147.188 20.073C148.855 20.9146 150.15 22.1135 151.071 23.6697C151.992 25.2259 152.452 27.0362 152.452 29.1006C152.452 31.165 151.992 32.9752 151.071 34.5314C150.15 36.0877 148.855 37.2945 147.188 38.152C145.521 39.0095 143.56 39.4383 141.305 39.4383H134.587V52.1579H127.489ZM134.587 33.3881H140.495C141.511 33.3881 142.384 33.2134 143.115 32.8641C143.845 32.5147 144.409 32.0145 144.806 31.3634C145.203 30.7124 145.402 29.9581 145.402 29.1006C145.402 27.7985 144.965 26.7663 144.091 26.004C143.218 25.2418 142.019 24.8607 140.495 24.8607H134.587V33.3881Z" fill="#838485"/>
<path d="M155.354 52.1599V18.8125H169.598C171.567 18.8125 173.29 19.1619 174.766 19.8606C176.243 20.5593 177.387 21.5359 178.196 22.7904C179.006 24.0449 179.411 25.5296 179.411 27.2446C179.411 28.2292 179.205 29.1819 178.792 30.103C178.379 31.024 177.831 31.8259 177.148 32.5087C176.466 33.1916 175.68 33.7077 174.79 34.057C176.029 34.4064 177.125 34.978 178.077 35.772C179.03 36.566 179.792 37.5188 180.364 38.6304C180.936 39.7419 181.222 40.9488 181.222 42.2509C181.222 44.22 180.737 45.9509 179.769 47.4436C178.8 48.9363 177.45 50.0955 175.719 50.9212C173.988 51.747 171.995 52.1599 169.741 52.1599H155.354ZM162.499 31.818H168.502C169.328 31.818 170.042 31.6671 170.646 31.3654C171.249 31.0637 171.725 30.6508 172.075 30.1268C172.424 29.6028 172.599 28.9914 172.599 28.2927C172.599 27.594 172.424 27.0302 172.075 26.5062C171.725 25.9822 171.249 25.5773 170.646 25.2914C170.042 25.0056 169.328 24.8627 168.502 24.8627H162.499V31.818ZM162.499 46.1097H169.074C170.026 46.1097 170.884 45.9271 171.646 45.5618C172.408 45.1966 173.004 44.6805 173.433 44.0136C173.861 43.3466 174.076 42.6003 174.076 41.7745C174.076 40.8853 173.861 40.1231 173.433 39.4879C173.004 38.8527 172.408 38.3525 171.646 37.9872C170.884 37.622 170.026 37.4394 169.074 37.4394H162.499V46.1097Z" fill="black"/>
<path d="M183.986 52.1601V18.4316H190.656V52.1601H183.986ZM183.986 23.8149V18.4316H190.656V23.8149H183.986ZM183.986 52.1601V46.7769H190.656V52.1601H183.986Z" fill="black"/>
<path d="M203.566 52.5397C201.82 52.5397 200.271 52.1824 198.922 51.4678C197.572 50.7532 196.516 49.7448 195.754 48.4427C194.991 47.1406 194.61 45.5843 194.61 43.7741V28.1484H201.232V42.0591C201.232 42.9801 201.415 43.8058 201.78 44.5363C202.145 45.2668 202.653 45.8146 203.304 46.1798C203.956 46.5451 204.71 46.7277 205.567 46.7277C206.742 46.7277 207.743 46.4101 208.569 45.7749C209.394 45.1397 210.03 44.2108 210.474 42.988C210.919 41.7653 211.141 40.2964 211.141 38.5814V28.1484H217.763V52.1585H211.141V49.3002C210.728 49.8401 210.165 50.3641 209.45 50.8723C208.735 51.3804 207.878 51.7854 206.877 52.0871C205.877 52.3888 204.773 52.5397 203.566 52.5397Z" fill="black"/>
<path d="M233.247 52.5399C230.801 52.5399 228.641 52.0079 226.768 50.944C224.894 49.8801 223.441 48.4112 222.409 46.5374C221.376 44.6636 220.86 42.5198 220.86 40.1061C220.86 38.2958 221.154 36.6443 221.742 35.1516C222.329 33.6589 223.163 32.3568 224.243 31.2452C225.323 30.1337 226.601 29.2762 228.078 28.6727C229.554 28.0693 231.182 27.7676 232.961 27.7676C234.962 27.7676 236.748 28.1169 238.32 28.8156C239.892 29.5143 241.202 30.5068 242.25 31.7931C243.298 33.0793 244.037 34.5562 244.466 36.2235C244.894 37.8909 244.982 39.6932 244.728 41.6306H225.767V36.8666H237.868C237.836 36.0409 237.613 35.3184 237.201 34.6991C236.788 34.0798 236.224 33.6034 235.509 33.2699C234.795 32.9364 233.945 32.7697 232.961 32.7697C232.103 32.7697 231.309 32.9285 230.579 33.2461C229.848 33.5637 229.245 34.0321 228.768 34.6514C228.292 35.2707 227.927 36.025 227.673 36.9143C227.419 37.8035 227.292 38.8198 227.292 39.9632C227.292 41.4241 227.53 42.6866 228.006 43.7505C228.483 44.8144 229.173 45.6322 230.079 46.2039C230.984 46.7756 232.04 47.0614 233.247 47.0614C234.072 47.0614 234.842 46.9185 235.557 46.6327C236.272 46.3468 236.875 45.9578 237.367 45.4655C237.86 44.9732 238.201 44.4095 238.392 43.7743L244.537 45.4417C244.124 46.8709 243.386 48.1174 242.322 49.1814C241.258 50.2453 239.948 51.071 238.392 51.6586C236.835 52.2461 235.12 52.5399 233.247 52.5399Z" fill="black"/>
<path d="M247.964 60.8291V28.1487H254.538V30.8165C255.014 30.2131 255.618 29.6811 256.348 29.2206C257.079 28.7601 257.905 28.4028 258.826 28.1487C259.747 27.8946 260.715 27.7676 261.732 27.7676C264.114 27.7676 266.162 28.2757 267.877 29.292C269.592 30.3083 270.926 31.7454 271.879 33.6034C272.831 35.4613 273.308 37.6448 273.308 40.1537C273.308 42.0275 273.046 43.7267 272.522 45.2511C271.998 46.7756 271.22 48.0777 270.188 49.1575C269.155 50.2374 267.933 51.071 266.519 51.6586C265.106 52.2461 263.51 52.5399 261.732 52.5399C260.747 52.5399 259.786 52.4049 258.849 52.135C257.913 51.865 257.079 51.4998 256.348 51.0393C255.618 50.5788 255.014 50.0468 254.538 49.4434V60.8291H247.964ZM260.588 46.8709C261.795 46.8709 262.843 46.593 263.732 46.0372C264.622 45.4814 265.328 44.6953 265.852 43.679C266.376 42.6627 266.638 41.4718 266.638 40.1061C266.638 38.7404 266.376 37.5971 265.852 36.5808C265.328 35.5645 264.622 34.7705 263.732 34.1989C262.843 33.6272 261.795 33.3414 260.588 33.3414C259.699 33.3414 258.889 33.5001 258.159 33.8177C257.428 34.1353 256.793 34.5958 256.253 35.1993C255.713 35.8027 255.292 36.5252 254.991 37.3669C254.689 38.2085 254.538 39.1216 254.538 40.1061C254.538 41.4718 254.8 42.6627 255.324 43.679C255.848 44.6953 256.563 45.4814 257.468 46.0372C258.373 46.593 259.413 46.8709 260.588 46.8709Z" fill="black"/>
<path d="M276.453 52.1588V28.1487H283.027V31.0547C283.472 30.3877 284.036 29.8002 284.719 29.292C285.401 28.7839 286.187 28.4028 287.077 28.1487C287.966 27.8946 288.903 27.7676 289.887 27.7676C290.427 27.7676 290.967 27.8073 291.507 27.8867C292.047 27.9661 292.523 28.0852 292.936 28.244L292.46 34.4847C291.983 34.2941 291.483 34.1592 290.959 34.0798C290.435 34.0004 289.919 33.9607 289.411 33.9607C288.585 33.9607 287.791 34.1353 287.029 34.4847C286.267 34.834 285.584 35.366 284.981 36.0806C284.377 36.7952 283.901 37.748 283.551 38.9389C283.202 40.1299 283.027 41.5512 283.027 43.2026V52.1588H276.453Z" fill="black"/>
<path d="M298.225 25.2432C297.05 25.2432 296.065 24.8621 295.271 24.0998C294.477 23.3376 294.08 22.369 294.08 21.1939C294.08 20.3999 294.263 19.7091 294.628 19.1216C294.993 18.534 295.485 18.0576 296.105 17.6924C296.724 17.3271 297.431 17.1445 298.225 17.1445C299.432 17.1445 300.432 17.5336 301.226 18.3117C302.02 19.0898 302.417 20.0505 302.417 21.1939C302.417 21.9561 302.234 22.6468 301.869 23.2662C301.504 23.8855 301.012 24.3698 300.392 24.7191C299.773 25.0685 299.05 25.2432 298.225 25.2432ZM294.89 52.1593V28.1492H301.559V52.1593H294.89ZM294.89 33.5324V28.1492H301.559V33.5324H294.89ZM294.89 52.1593V46.776H301.559V52.1593H294.89Z" fill="black"/>
<path d="M305.798 52.1588V28.1487H312.372V31.007C312.785 30.4671 313.349 29.9431 314.063 29.4349C314.778 28.9268 315.643 28.5219 316.66 28.2202C317.676 27.9184 318.787 27.7676 319.994 27.7676C321.741 27.7676 323.281 28.1328 324.615 28.8633C325.949 29.5937 326.997 30.618 327.759 31.936C328.522 33.254 328.903 34.8817 328.903 36.819V52.1588H322.281V38.2005C322.281 37.2478 322.098 36.422 321.733 35.7233C321.368 35.0246 320.868 34.4926 320.233 34.1274C319.597 33.7622 318.851 33.5795 317.993 33.5795C316.818 33.5795 315.818 33.8892 314.992 34.5085C314.166 35.1278 313.523 36.0409 313.063 37.2478C312.602 38.4546 312.372 39.9314 312.372 41.6782V52.1588H305.798Z" fill="black"/>
<path d="M330.618 33.5323V28.1491H346.625V33.5323H330.618ZM343.29 52.5403C341.639 52.5403 340.138 52.2068 338.788 51.5399C337.439 50.8729 336.375 49.8963 335.596 48.6101C334.818 47.3238 334.429 45.7597 334.429 43.9176V22.3848H341.051V43.2983C341.051 44.4417 341.337 45.3151 341.909 45.9185C342.48 46.5219 343.258 46.8236 344.243 46.8236C344.624 46.8236 345.013 46.776 345.41 46.6807C345.807 46.5854 346.212 46.4743 346.625 46.3472L347.101 51.921C346.561 52.1116 345.958 52.2624 345.291 52.3736C344.624 52.4847 343.957 52.5403 343.29 52.5403Z" fill="black"/>
</svg>
