<svg width="15" height="15" viewBox="0 0 15 15" fill="none" xmlns="http://www.w3.org/2000/svg">
<path d="M7.14788 0.703206C7.58651 0.703206 7.94209 1.05879 7.94209 1.49741C7.94209 1.93604 7.58651 2.29162 7.14788 2.29162H2.20579C2.04209 2.29171 1.88515 2.35683 1.76939 2.4726C1.65363 2.58836 1.58851 2.74529 1.58842 2.909V12.7932C1.58851 12.9569 1.65363 13.1138 1.76939 13.2296C1.88515 13.3453 2.04209 13.4105 2.20579 13.4105H12.09C12.2537 13.4105 12.4106 13.3453 12.5264 13.2296C12.6421 13.1138 12.7073 12.9569 12.7073 12.7932V7.85109C12.7073 7.41246 13.0629 7.05688 13.5016 7.05688C13.9402 7.05688 14.2958 7.41246 14.2958 7.85109V12.7932C14.2957 13.3782 14.0631 13.939 13.6494 14.3526C13.2358 14.7663 12.6749 14.9989 12.09 14.999H2.20579C1.62081 14.9989 1.05998 14.7663 0.646329 14.3526C0.232679 13.939 9.11817e-05 13.3782 0 12.7932V2.909C9.12819e-05 2.32402 0.232679 1.76318 0.646329 1.34953C1.05998 0.935885 1.62081 0.703297 2.20579 0.703206H7.14788ZM12.7073 0C13.3149 0.000108893 13.8981 0.24163 14.3278 0.671148C14.7574 1.10088 15 1.684 15 2.29162C15 2.89933 14.7575 3.48236 14.3278 3.9121L7.96587 10.2761H7.96484C7.70303 10.5376 7.37899 10.7287 7.02378 10.8325L7.02482 10.8335L4.99586 11.4261C4.79858 11.4836 4.58895 11.4873 4.38987 11.4364C4.19089 11.3854 4.00883 11.2817 3.8635 11.1365C3.71826 10.9913 3.61471 10.809 3.5636 10.6101C3.51256 10.4109 3.51637 10.2005 3.57394 10.0031L4.16649 7.97518V7.97415C4.27076 7.61901 4.46298 7.29562 4.72492 7.03413L11.0869 0.671148C11.5166 0.24153 12.0997 0.000108594 12.7073 0ZM12.7073 1.58842C12.521 1.58853 12.3417 1.66248 12.2099 1.79421L5.84798 8.15822H5.84695C5.7736 8.23144 5.71999 8.32249 5.6908 8.42192L5.32368 9.67528L6.57911 9.30817L6.6515 9.28232C6.72245 9.25153 6.78778 9.207 6.84281 9.15202L13.2048 2.78904C13.3365 2.65718 13.4115 2.47805 13.4116 2.29162C13.4115 2.10527 13.3364 1.92605 13.2048 1.79421C13.073 1.66258 12.8936 1.58853 12.7073 1.58842Z" fill="#344C56"/>
</svg>
