<svg width="38" height="36" viewBox="0 0 38 36" fill="none" xmlns="http://www.w3.org/2000/svg">
<path d="M23.2925 11.25C24.4428 11.2502 25.3753 12.1827 25.3755 13.333V22.667C25.3753 23.8173 24.4428 24.7498 23.2925 24.75H13.9585C12.8082 24.7498 11.8757 23.8173 11.8755 22.667V13.333C11.8757 12.1827 12.8082 11.2502 13.9585 11.25H23.2925ZM17.3755 23.25H23.2925C23.6144 23.2498 23.8753 22.9889 23.8755 22.667V13.333C23.8753 13.0111 23.6144 12.7502 23.2925 12.75H17.3755V23.25ZM13.9585 12.75C13.6366 12.7502 13.3757 13.0111 13.3755 13.333V22.667C13.3757 22.9889 13.6366 23.2498 13.9585 23.25H15.8755V12.75H13.9585Z" fill="#498291"/>
</svg>
